#!OML:ASF H:\BabyWalks\Project 1\Capture day 1\Session 1\baby.ASF
:FULLY-SPECIFIED
:DEGREES
367
root -5.21171 17.6879 -1.69133 323.585 82.3587 315.539
lowerback 26.4348 0.328976 -1.34465
upperback 6.6675 0.579049 0.0867029
thorax -7.24459 0.4989 0.658632
lowerneck -2.08642 1.63711 4.94117
upperneck -1.62741 2.08238 -2.85328
head -0.0672559 1.02253 -1.70878
rclavicle -1.47101e-014 -8.74653e-015
rhumerus -58.2901 20.1863 -91.7854
rradius 58.9344
rwrist -8.98007
rhand -12.5515 -20.524
rfingers 7.12502
rthumb 13.5255 -50.0648
lclavicle -1.47101e-014 -8.74653e-015
lhumerus -45.6131 -17.4735 75.9939
lradius 75.3553
lwrist 3.99874
lhand -19.9074 3.91999
lfingers 7.12502
lthumb 6.42919 33.8024
rfemur -28.2515 1.23067 24.7012
rtibia 35.6628
rfoot -20.9194 5.12539
rtoes -13.2464
lfemur -30.6562 -3.20642 -9.75702
ltibia 36.296
lfoot -18.0808 -7.00287
ltoes -0.518222
368
root -5.14806 17.6928 -1.67399 323.122 82.5777 314.777
lowerback 26.5691 0.313828 -1.28191
upperback 6.66577 0.581182 0.126281
thorax -7.31344 0.500878 0.664295
lowerneck -2.03839 1.563 4.92603
upperneck -1.7904 1.98456 -2.96659
head -0.128817 0.973182 -1.74488
rclavicle -2.38542e-015 -1.98785e-014
rhumerus -58.6698 20.0392 -91.9271
rradius 59.0571
rwrist -9.15266
rhand -12.8072 -20.5671
rfingers 7.12502
rthumb 13.279 -50.1241
lclavicle -2.38542e-015 -1.98785e-014
lhumerus -45.9634 -17.5606 76.3327
lradius 75.4174
lwrist 4.08519
lhand -19.7015 4.04083
lfingers 7.12502
lthumb 6.62797 33.9171
rfemur -28.4329 1.25069 24.7447
rtibia 35.0563
rfoot -21.0258 4.46044
rtoes -12.9352
lfemur -30.7985 -3.12107 -9.82386
ltibia 36.3365
lfoot -18.5159 -7.23241
ltoes -0.812163
369
root -5.0861 17.6934 -1.65529 322.7 82.8235 314.062
lowerback 26.7212 0.295729 -1.22905
upperback 6.67221 0.577304 0.156697
thorax -7.38171 0.500495 0.667376
lowerneck -2.00094 1.49119 4.91335
upperneck -1.96922 1.88896 -3.08432
head -0.193535 0.925053 -1.78283
rclavicle -3.18055e-015 -3.97569e-015
rhumerus -58.9824 19.8892 -92.0689
rradius 59.1291
rwrist -9.26681
rhand -13.0092 -20.5871
rfingers 7.12502
rthumb 13.0844 -50.1566
lclavicle -3.18055e-015 -3.97569e-015
lhumerus -46.303 -17.583 76.6666
lradius 75.3335
lwrist 4.10148
lhand -19.415 4.19559
lfingers 7.12502
lthumb 6.90458 34.063
rfemur -28.6017 1.33025 24.7353
rtibia 34.5985
rfoot -21.0724 3.77569
rtoes -12.5959
lfemur -30.9794 -2.9811 -9.93112
ltibia 36.4409
lfoot -18.9611 -7.52632
ltoes -1.1098
370
root -5.02582 17.69 -1.63533 322.324 83.0952 313.398
lowerback 26.8845 0.27548 -1.183
upperback 6.68391 0.568673 0.175113
thorax -7.44936 0.498195 0.662639
lowerneck -1.96935 1.41872 4.90653
upperneck -2.16314 1.79183 -3.19983
head -0.262204 0.87629 -1.82119
rclavicle -4.37326e-015 -1.11319e-014
rhumerus -59.2252 19.7263 -92.2125
rradius 59.1435
rwrist -9.31764
rhand -13.1443 -20.5736
rfingers 7.12502
rthumb 12.9541 -50.1514
lclavicle -4.37326e-015 -1.11319e-014
lhumerus -46.6331 -17.5434 76.9885
lradius 75.117
lwrist 4.0465
lhand -19.0719 4.3523
lfingers 7.12502
lthumb 7.23575 34.2086
rfemur -28.7713 1.45827 24.6782
rtibia 34.2804
rfoot -21.0604 3.0793
rtoes -12.2982
lfemur -31.2074 -2.7936 -10.0775
ltibia 36.6136
lfoot -19.4167 -7.87792
ltoes -1.402
371
root -4.96718 17.6826 -1.61427 321.982 83.3943 312.767
lowerback 27.0563 0.250548 -1.14402
upperback 6.69991 0.552004 0.18319
thorax -7.51606 0.492387 0.653147
lowerneck -1.94292 1.3461 4.89763
upperneck -2.37088 1.69407 -3.30876
head -0.334637 0.827398 -1.85711
rclavicle 7.55382e-015 1.19271e-014
rhumerus -59.3903 19.5573 -92.3541
rradius 59.0938
rwrist -9.30564
rhand -13.202 -20.5353
rfingers 7.12502
rthumb 12.8984 -50.1167
lclavicle 7.55382e-015 1.19271e-014
lhumerus -46.9471 -17.4353 77.2957
lradius 74.7693
lwrist 3.92088
lhand -18.7011 4.50276
lfingers 7.12502
lthumb 7.59363 34.3464
rfemur -28.9532 1.61931 24.5766
rtibia 34.1015
rfoot -20.9967 2.38975
rtoes -12.0822
lfemur -31.4875 -2.56515 -10.2626
ltibia 36.8555
lfoot -19.8834 -8.28268
ltoes -1.67914
372
root -4.91046 17.6713 -1.59217 321.623 83.719 312.108
lowerback 27.2347 0.219717 -1.10722
upperback 6.71868 0.527159 0.183776
thorax -7.58257 0.482907 0.639315
lowerneck -1.92574 1.27174 4.88928
upperneck -2.5911 1.59338 -3.41097
head -0.409803 0.777191 -1.89101
rclavicle -1.59028e-015 -3.18055e-015
rhumerus -59.4704 19.3826 -92.4909
rradius 58.9708
rwrist -9.23447
rhand -13.1922 -20.4566
rfingers 7.12502
rthumb 12.9079 -50.0374
lclavicle -1.59028e-015 -3.18055e-015
lhumerus -47.2447 -17.2547 77.5862
lradius 74.3071
lwrist 3.73136
lhand -18.3178 4.64495
lfingers 7.12502
lthumb 7.96361 34.4749
rfemur -29.1681 1.80263 24.4379
rtibia 34.0704
rfoot -20.8861 1.71234
rtoes -11.8701
lfemur -31.8287 -2.29805 -10.4788
ltibia 37.1647
lfoot -20.3645 -8.74375
ltoes -1.93653
373
root -4.85584 17.6561 -1.5692 321.203 84.0714 311.376
lowerback 27.4171 0.18041 -1.07351
upperback 6.74148 0.491051 0.180523
thorax -7.64615 0.46834 0.626801
lowerneck -1.91098 1.19771 4.87062
upperneck -2.83554 1.49301 -3.50219
head -0.492497 0.727421 -1.91964
rclavicle -3.97569e-016 9.93923e-015
rhumerus -59.461 19.2056 -92.6152
rradius 58.7816
rwrist -9.1176
rhand -13.1173 -20.3582
rfingers 7.12502
rthumb 12.9801 -49.9344
lclavicle -3.97569e-016 9.93923e-015
lhumerus -47.5079 -17.0027 77.8554
lradius 73.7324
lwrist 3.49956
lhand -17.9657 4.73079
lfingers 7.12502
lthumb 8.30341 34.5476
rfemur -29.4102 1.99776 24.2632
rtibia 34.1489
rfoot -20.7394 1.02916
rtoes -11.6142
lfemur -32.2187 -1.99644 -10.7258
ltibia 37.4983
lfoot -20.8334 -9.26491
ltoes -2.15849
374
root -4.80357 17.6371 -1.54554 320.751 84.4474 310.594
lowerback 27.6038 0.135276 -1.04627
upperback 6.76659 0.446097 0.174848
thorax -7.70895 0.449839 0.618369
lowerneck -1.89426 1.12453 4.84019
upperneck -3.10804 1.39381 -3.58565
head -0.584595 0.678608 -1.94387
rclavicle 1.19271e-014 2.78299e-015
rhumerus -59.3625 19.0286 -92.7248
rradius 58.5251
rwrist -8.95748
rhand -12.9916 -20.2406
rfingers 7.12502
rthumb 13.1013 -49.8091
lclavicle 1.19271e-014 2.78299e-015
lhumerus -47.7317 -16.6791 78.1025
lradius 73.0508
lwrist 3.23041
lhand -17.6401 4.78461
lfingers 7.12502
lthumb 8.61766 34.5887
rfemur -29.7275 2.20316 24.0516
rtibia 34.4005
rfoot -20.6226 0.35061
rtoes -11.3874
lfemur -32.6831 -1.66079 -11.0034
ltibia 37.9056
lfoot -21.316 -9.84137
ltoes -2.32975
375
root -4.75459 17.6245 -1.5213 320.219 84.8295 309.707
lowerback 27.7909 0.0863972 -1.01256
upperback 6.79507 0.398998 0.172072
thorax -7.76802 0.430388 0.610318
lowerneck -1.8819 1.05066 4.80129
upperneck -3.41065 1.29326 -3.66904
head -0.685742 0.629551 -1.9668
rclavicle 1.70955e-014 3.22031e-014
rhumerus -59.1724 18.8533 -92.8107
rradius 58.2081
rwrist -8.76321
rhand -12.8231 -20.1148
rfingers 7.12502
rthumb 13.2637 -49.6727
lclavicle 1.70955e-014 3.22031e-014
lhumerus -47.9027 -16.2891 78.3279
lradius 72.2673
lwrist 2.92889
lhand -17.3579 4.77836
lfingers 7.12502
lthumb 8.88995 34.5711
rfemur -30.1235 2.40986 23.8212
rtibia 34.8085
rfoot -20.5299 -0.302792
rtoes -11.1034
lfemur -33.2053 -1.28679 -11.2976
ltibia 38.3675
lfoot -21.8094 -10.47
ltoes -2.44906
